<svg width="65" height="26" viewBox="0 0 65 26" fill="none" xmlns="http://www.w3.org/2000/svg">
<path d="M5.8 14.4L4.46 11.6H4.4V21H1.54V7.04H4.86L8.68 13.64L10.02 16.44H10.08V7.04H12.94V21H9.62L5.8 14.4ZM20.1127 21.24C19.3393 21.24 18.646 21.1133 18.0327 20.86C17.4327 20.6067 16.9193 20.24 16.4927 19.76C16.0793 19.28 15.7593 18.7 15.5327 18.02C15.306 17.34 15.1927 16.58 15.1927 15.74C15.1927 14.9 15.306 14.14 15.5327 13.46C15.7593 12.78 16.0793 12.2067 16.4927 11.74C16.9193 11.26 17.4327 10.8933 18.0327 10.64C18.646 10.3867 19.3393 10.26 20.1127 10.26C20.886 10.26 21.5727 10.3867 22.1727 10.64C22.786 10.8933 23.2993 11.26 23.7127 11.74C24.1393 12.2067 24.466 12.78 24.6927 13.46C24.9193 14.14 25.0327 14.9 25.0327 15.74C25.0327 16.58 24.9193 17.34 24.6927 18.02C24.466 18.7 24.1393 19.28 23.7127 19.76C23.2993 20.24 22.786 20.6067 22.1727 20.86C21.5727 21.1133 20.886 21.24 20.1127 21.24ZM20.1127 18.9C20.6993 18.9 21.1527 18.72 21.4727 18.36C21.7927 18 21.9527 17.4867 21.9527 16.82V14.68C21.9527 14.0133 21.7927 13.5 21.4727 13.14C21.1527 12.78 20.6993 12.6 20.1127 12.6C19.526 12.6 19.0727 12.78 18.7527 13.14C18.4327 13.5 18.2727 14.0133 18.2727 14.68V16.82C18.2727 17.4867 18.4327 18 18.7527 18.36C19.0727 18.72 19.526 18.9 20.1127 18.9ZM30.7045 21C29.6779 21 28.8979 20.74 28.3645 20.22C27.8445 19.7 27.5845 18.94 27.5845 17.94V12.8H26.1045V10.5H26.8445C27.2445 10.5 27.5179 10.4067 27.6645 10.22C27.8112 10.02 27.8845 9.74 27.8845 9.38V7.66H30.5445V10.5H32.6245V12.8H30.5445V18.7H32.4645V21H30.7045ZM38.9827 21.24C38.1827 21.24 37.4693 21.1133 36.8427 20.86C36.216 20.5933 35.6827 20.2267 35.2427 19.76C34.816 19.28 34.4893 18.7 34.2627 18.02C34.0493 17.34 33.9427 16.58 33.9427 15.74C33.9427 14.9133 34.0493 14.1667 34.2627 13.5C34.476 12.82 34.7893 12.24 35.2027 11.76C35.6293 11.28 36.1493 10.9133 36.7627 10.66C37.376 10.3933 38.076 10.26 38.8627 10.26C39.7293 10.26 40.4693 10.4067 41.0827 10.7C41.7093 10.9933 42.216 11.3867 42.6027 11.88C43.0027 12.3733 43.2893 12.9467 43.4627 13.6C43.6493 14.24 43.7427 14.9133 43.7427 15.62V16.5H37.0027V16.66C37.0027 17.3533 37.1893 17.9067 37.5627 18.32C37.936 18.72 38.5227 18.92 39.3227 18.92C39.936 18.92 40.436 18.8 40.8227 18.56C41.2093 18.3067 41.5693 18.0067 41.9027 17.66L43.3827 19.5C42.916 20.0467 42.3027 20.4733 41.5427 20.78C40.796 21.0867 39.9427 21.24 38.9827 21.24ZM38.9227 12.44C38.3227 12.44 37.8493 12.64 37.5027 13.04C37.1693 13.4267 37.0027 13.9467 37.0027 14.6V14.76H40.6827V14.58C40.6827 13.94 40.536 13.4267 40.2427 13.04C39.9627 12.64 39.5227 12.44 38.9227 12.44Z" fill="#1890FF"/>
<path d="M45.4531 21V18.58H47.2531V9.46H45.4531V7.04H52.0931V9.46H50.2931V18.58H52.0931V21H45.4531ZM60.3678 9.74V21H57.3278V9.74H53.5478V7.04H64.1478V9.74H60.3678Z" fill="#FF802B"/>
</svg>
