<svg width="104" height="40" viewBox="0 0 104 40" fill="none" xmlns="http://www.w3.org/2000/svg">
<path d="M8.7 21.1L6.69 16.9H6.6V31H2.31V10.06H7.29L13.02 19.96L15.03 24.16H15.12V10.06H19.41V31H14.43L8.7 21.1ZM30.169 31.36C29.009 31.36 27.969 31.17 27.049 30.79C26.149 30.41 25.379 29.86 24.739 29.14C24.119 28.42 23.639 27.55 23.299 26.53C22.959 25.51 22.789 24.37 22.789 23.11C22.789 21.85 22.959 20.71 23.299 19.69C23.639 18.67 24.119 17.81 24.739 17.11C25.379 16.39 26.149 15.84 27.049 15.46C27.969 15.08 29.009 14.89 30.169 14.89C31.329 14.89 32.359 15.08 33.259 15.46C34.179 15.84 34.949 16.39 35.569 17.11C36.209 17.81 36.699 18.67 37.039 19.69C37.379 20.71 37.549 21.85 37.549 23.11C37.549 24.37 37.379 25.51 37.039 26.53C36.699 27.55 36.209 28.42 35.569 29.14C34.949 29.86 34.179 30.41 33.259 30.79C32.359 31.17 31.329 31.36 30.169 31.36ZM30.169 27.85C31.049 27.85 31.729 27.58 32.209 27.04C32.689 26.5 32.929 25.73 32.929 24.73V21.52C32.929 20.52 32.689 19.75 32.209 19.21C31.729 18.67 31.049 18.4 30.169 18.4C29.289 18.4 28.609 18.67 28.129 19.21C27.649 19.75 27.409 20.52 27.409 21.52V24.73C27.409 25.73 27.649 26.5 28.129 27.04C28.609 27.58 29.289 27.85 30.169 27.85ZM46.0568 31C44.5168 31 43.3468 30.61 42.5468 29.83C41.7668 29.05 41.3768 27.91 41.3768 26.41V18.7H39.1568V15.25H40.2668C40.8668 15.25 41.2768 15.11 41.4968 14.83C41.7168 14.53 41.8268 14.11 41.8268 13.57V10.99H45.8168V15.25H48.9368V18.7H45.8168V27.55H48.6968V31H46.0568ZM58.474 31.36C57.274 31.36 56.204 31.17 55.264 30.79C54.324 30.39 53.524 29.84 52.864 29.14C52.224 28.42 51.734 27.55 51.394 26.53C51.074 25.51 50.914 24.37 50.914 23.11C50.914 21.87 51.074 20.75 51.394 19.75C51.714 18.73 52.184 17.86 52.804 17.14C53.444 16.42 54.224 15.87 55.144 15.49C56.064 15.09 57.114 14.89 58.294 14.89C59.594 14.89 60.704 15.11 61.624 15.55C62.564 15.99 63.324 16.58 63.904 17.32C64.504 18.06 64.934 18.92 65.194 19.9C65.474 20.86 65.614 21.87 65.614 22.93V24.25H55.504V24.49C55.504 25.53 55.784 26.36 56.344 26.98C56.904 27.58 57.784 27.88 58.984 27.88C59.904 27.88 60.654 27.7 61.234 27.34C61.814 26.96 62.354 26.51 62.854 25.99L65.074 28.75C64.374 29.57 63.454 30.21 62.314 30.67C61.194 31.13 59.914 31.36 58.474 31.36ZM58.384 18.16C57.484 18.16 56.774 18.46 56.254 19.06C55.754 19.64 55.504 20.42 55.504 21.4V21.64H61.024V21.37C61.024 20.41 60.804 19.64 60.364 19.06C59.944 18.46 59.284 18.16 58.384 18.16Z" fill="#1890FF"/>
<path d="M68.1797 31V27.37H70.8797V13.69H68.1797V10.06H78.1397V13.69H75.4397V27.37H78.1397V31H68.1797ZM90.5517 14.11V31H85.9917V14.11H80.3217V10.06H96.2217V14.11H90.5517Z" fill="#FF802B"/>
</svg>
